<svg width="56" height="56" viewBox="0 0 56 56" fill="none" xmlns="http://www.w3.org/2000/svg">
<path d="M38.3321 32.8203C39.7177 32.8203 41.0722 32.409 42.224 31.6386C43.3757 30.8682 44.2729 29.7733 44.8019 28.4926C45.3309 27.2119 45.4678 25.803 45.1955 24.4443C44.9231 23.0857 44.2536 21.8385 43.2718 20.8606C42.2901 19.8828 41.0402 19.2183 39.6805 18.9514C38.3207 18.6845 36.9124 18.8271 35.6338 19.3612C34.3552 19.8953 33.2639 20.7969 32.4981 21.9517C31.7323 23.1065 31.3265 24.4626 31.332 25.8483C31.3394 27.7 32.0802 29.4733 33.3922 30.78C34.7041 32.0867 36.4804 32.8203 38.3321 32.8203ZM38.3321 22.1803C38.8388 22.1359 39.3492 22.1974 39.8309 22.3608C40.3126 22.5243 40.7551 22.7862 41.1301 23.1298C41.5052 23.4734 41.8047 23.8913 42.0096 24.3569C42.2144 24.8225 42.3202 25.3256 42.3202 25.8343C42.3202 26.343 42.2144 26.8461 42.0096 27.3117C41.8047 27.7773 41.5052 28.1952 41.1301 28.5388C40.7551 28.8824 40.3126 29.1443 39.8309 29.3078C39.3492 29.4712 38.8388 29.5327 38.3321 29.4883C37.8253 29.5327 37.3149 29.4712 36.8332 29.3078C36.3515 29.1443 35.9091 28.8824 35.534 28.5388C35.1589 28.1952 34.8595 27.7773 34.6546 27.3117C34.4497 26.8461 34.3439 26.343 34.3439 25.8343C34.3439 25.3256 34.4497 24.8225 34.6546 24.3569C34.8595 23.8913 35.1589 23.4734 35.534 23.1298C35.9091 22.7862 36.3515 22.5243 36.8332 22.3608C37.3149 22.1974 37.8253 22.1359 38.3321 22.1803ZM17.668 32.8203C19.0537 32.8203 20.4082 32.409 21.5599 31.6386C22.7116 30.8682 23.6088 29.7733 24.1378 28.4926C24.6668 27.2119 24.8038 25.803 24.5314 24.4443C24.259 23.0857 23.5896 21.8385 22.6078 20.8606C21.626 19.8828 20.3761 19.2183 19.0164 18.9514C17.6567 18.6845 16.2483 18.8271 14.9698 19.3612C13.6912 19.8953 12.5999 20.7969 11.8341 21.9517C11.0683 23.1065 10.6624 24.4626 10.668 25.8483C10.6754 27.7 11.4162 29.4733 12.7281 30.78C14.0401 32.0867 15.8163 32.8203 17.668 32.8203ZM14 25.8483C13.9944 25.1217 14.2048 24.4098 14.6045 23.8029C15.0042 23.196 15.5751 22.7215 16.2448 22.4396C16.9145 22.1577 17.6529 22.081 18.3663 22.2194C19.0796 22.3577 19.7358 22.7048 20.2516 23.2167C20.7674 23.7285 21.1195 24.3821 21.2634 25.0943C21.4072 25.8066 21.3362 26.5456 21.0594 27.2174C20.7826 27.8893 20.3125 28.4638 19.7087 28.8681C19.1049 29.2724 18.3947 29.4883 17.668 29.4883C16.7 29.4883 15.7713 29.1057 15.0842 28.4239C14.3971 27.742 14.0074 26.8162 14 25.8483Z" fill="#136DD8"/>
<path d="M27.9999 56C33.5378 56 38.9513 54.3578 43.5559 51.2811C48.1605 48.2044 51.7493 43.8314 53.8686 38.7151C55.9879 33.5987 56.5424 27.9689 55.462 22.5374C54.3816 17.1059 51.7148 12.1168 47.799 8.20087C43.8831 4.28499 38.8939 1.61824 33.4625 0.53785C28.031 -0.542539 22.4011 0.0119556 17.2847 2.13122C12.1684 4.25048 7.79538 7.83932 4.71869 12.4439C1.64201 17.0485 -0.000171852 22.462 -0.000171852 27.9999C-0.000171852 31.6769 0.724069 35.318 2.1312 38.7151C3.53834 42.1122 5.60081 45.1989 8.20086 47.799C10.8009 50.399 13.8876 52.4615 17.2847 53.8686C20.6819 55.2758 24.3229 56 27.9999 56ZM7.33585 25.8439C7.33302 23.832 7.91763 21.8631 9.01792 20.1788C10.1182 18.4944 11.6863 17.168 13.5298 16.3622C15.3733 15.5564 17.4119 15.3064 19.3954 15.6428C21.379 15.9792 23.2212 16.8874 24.6959 18.2559L27.9999 14.6439L31.3039 18.2559C32.3041 17.3366 33.4755 16.6234 34.7513 16.1568C36.0271 15.6903 37.3823 15.4796 38.7395 15.5368C40.0967 15.594 41.4294 15.918 42.6614 16.4902C43.8935 17.0624 45.0007 17.8717 45.92 18.8719C46.8392 19.872 47.5525 21.0435 48.019 22.3193C48.4856 23.5951 48.6962 24.9503 48.639 26.3075C48.5818 27.6647 48.2579 28.9974 47.6856 30.2294C47.1134 31.4614 46.3041 32.5687 45.304 33.4879L48.664 37.1279H41.1599C37.2799 39.7837 32.6878 41.2048 27.9859 41.2048C23.284 41.2048 18.6919 39.7837 14.8119 37.1279H7.33585L10.6959 33.4599C9.64093 32.4908 8.79786 31.3139 8.21963 30.0032C7.6414 28.6925 7.3405 27.2764 7.33585 25.8439Z" fill="#136DD8"/>
<path d="M20.2438 36.2624C22.7009 37.2882 25.3372 37.8164 27.9998 37.8164C30.6625 37.8164 33.2987 37.2882 35.7559 36.2624C33.5844 35.5379 31.6822 34.1746 30.2983 32.3511C28.9144 30.5276 28.1133 28.3287 27.9998 26.0424C27.8788 28.3266 27.0748 30.5219 25.692 32.344C24.3092 34.1661 22.4112 35.5312 20.2438 36.2624Z" fill="#136DD8"/>
</svg>
