<?xml version="1.0" encoding="UTF-8" standalone="no"?>
<!-- Created with Inkscape (http://www.inkscape.org/) -->

<svg
   width="46.524467mm"
   height="9.5223837mm"
   viewBox="0 0 46.524467 9.5223837"
   version="1.1"
   id="svg1"
   xml:space="preserve"
   xmlns:inkscape="http://www.inkscape.org/namespaces/inkscape"
   xmlns:sodipodi="http://sodipodi.sourceforge.net/DTD/sodipodi-0.dtd"
   xmlns="http://www.w3.org/2000/svg"
   xmlns:svg="http://www.w3.org/2000/svg"><sodipodi:namedview
     id="namedview1"
     pagecolor="#ffffff"
     bordercolor="#000000"
     borderopacity="0.25"
     inkscape:showpageshadow="2"
     inkscape:pageopacity="0.0"
     inkscape:pagecheckerboard="0"
     inkscape:deskcolor="#d1d1d1"
     inkscape:document-units="mm" /><defs
     id="defs1"><clipPath
       id="clip0_48_105"><rect
         width="187"
         height="38"
         fill="#ffffff"
         id="rect11"
         x="0"
         y="0" /></clipPath><clipPath
       id="clip1_48_105"><rect
         width="32"
         height="36.7192"
         fill="#ffffff"
         transform="translate(0,0.640419)"
         id="rect12"
         x="0"
         y="0" /></clipPath></defs><g
     inkscape:label="Layer 1"
     inkscape:groupmode="layer"
     id="layer1"
     transform="translate(-75.221918,-168.3417)"><g
       id="g4"><g
         style="fill:none"
         id="g1"
         transform="matrix(0.26458333,0,0,0.26458333,75.089236,168.16955)"><g
           clip-path="url(#clip0_48_105)"
           id="g11"><g
             clip-path="url(#clip1_48_105)"
             id="g2"><path
               d="m 5.04089,5.19003 c 6.05251,-6.052539 15.86561,-6.052539 21.91821,0 v 0 c 6.0525,6.05257 6.0525,15.86567 0,21.91817 l -8.5238,8.5238 c -1.345,1.345 -3.5257,1.345 -4.8707,0 L 5.04089,27.1082 c -6.05254,-6.0525 -6.05254,-15.8656 0,-21.91817 z"
               fill="#6449fa"
               id="path1" /></g><path
             d="m 58.6917,7.14687 c 0.2725,0 0.4934,0.22091 0.4934,0.49342 v 3.88021 c 0,0.2725 -0.2209,0.4934 -0.4934,0.4934 h -5.621 c -0.2725,0 -0.4934,0.2209 -0.4934,0.4934 v 19.0853 c 0,0.2725 -0.2209,0.4934 -0.4934,0.4934 h -5.0881 c -0.2725,0 -0.4934,-0.2209 -0.4934,-0.4934 V 12.5073 c 0,-0.2725 -0.2209,-0.4934 -0.4934,-0.4934 h -5.621 c -0.2725,0 -0.4934,-0.2209 -0.4934,-0.4934 V 7.64029 c 0,-0.27251 0.2209,-0.49342 0.4934,-0.49342 z"
             fill="#162533"
             id="path3" /><path
             d="m 76.2217,22.1388 c 0,-2.0369 0.3789,-3.825 1.1368,-5.3644 0.7816,-1.5395 1.8355,-2.7237 3.1618,-3.5526 1.3263,-0.829 2.8065,-1.2434 4.4407,-1.2434 1.3974,0 2.6171,0.2842 3.6592,0.8526 0.4974,0.2653 0.9407,0.5693 1.3298,0.912 0.3733,0.3288 1.1215,0.0804 1.1215,-0.4171 V 12.756 c 0,-0.2725 0.2209,-0.4934 0.4934,-0.4934 h 5.0881 c 0.2725,0 0.4934,0.2209 0.4934,0.4934 v 18.8366 c 0,0.2725 -0.2209,0.4934 -0.4934,0.4934 h -5.0881 c -0.2725,0 -0.4934,-0.2209 -0.4934,-0.4934 v -0.6291 c 0,-0.4928 -0.7236,-0.7364 -1.0916,-0.4087 -0.4083,0.3635 -0.8734,0.6844 -1.3952,0.9628 -1.0421,0.5684 -2.2618,0.8526 -3.6592,0.8526 -1.6105,0 -3.0789,-0.4145 -4.4052,-1.2434 -1.3263,-0.8526 -2.3802,-2.0487 -3.1618,-3.5881 -0.7579,-1.5632 -1.1368,-3.3631 -1.1368,-5.3999 z m 14.8498,0.0355 c 0,-1.5158 -0.4263,-2.7118 -1.279,-3.5881 -0.8289,-0.8763 -1.8473,-1.3145 -3.0552,-1.3145 -1.2079,0 -2.2381,0.4382 -3.0907,1.3145 -0.829,0.8526 -1.2434,2.0368 -1.2434,3.5526 0,1.5157 0.4144,2.7236 1.2434,3.6236 0.8526,0.8763 1.8828,1.3144 3.0907,1.3144 1.2079,0 2.2263,-0.4381 3.0552,-1.3144 0.8527,-0.8763 1.279,-2.0723 1.279,-3.5881 z"
             fill="#162533"
             id="path4" /><path
             d="m 109.986,24.8491 c 0.142,0.4665 0.803,0.4665 0.944,0 l 3.721,-12.2366 c 0.063,-0.2079 0.254,-0.3499 0.472,-0.3499 h 5.401 c 0.341,0 0.579,0.3372 0.465,0.6584 l -6.684,18.8366 c -0.07,0.1968 -0.256,0.3284 -0.465,0.3284 h -6.799 c -0.209,0 -0.395,-0.1316 -0.465,-0.3284 L 99.8921,12.921 c -0.114,-0.3212 0.1239,-0.6584 0.4649,-0.6584 h 5.437 c 0.217,0 0.409,0.142 0.472,0.3499 z"
             fill="#162533"
             id="path5" /><path
             d="m 142.466,21.8546 c 0,0.4325 -0.02,0.8788 -0.062,1.3388 -0.022,0.2496 -0.234,0.4374 -0.484,0.4374 h -12.776 c -0.287,0 -0.516,0.2454 -0.471,0.5293 0.155,0.9771 0.526,1.748 1.11,2.3128 0.711,0.6395 1.575,0.9592 2.594,0.9592 1.4,0 2.406,-0.5458 3.018,-1.6373 0.094,-0.1677 0.267,-0.2811 0.459,-0.2811 h 5.516 c 0.321,0 0.558,0.3036 0.456,0.6091 -0.351,1.0616 -0.896,2.0309 -1.633,2.908 -0.853,1.0421 -1.931,1.8591 -3.233,2.4512 -1.303,0.5921 -2.759,0.8882 -4.37,0.8882 -1.942,0 -3.671,-0.4145 -5.187,-1.2434 -1.516,-0.829 -2.7,-2.0131 -3.552,-3.5526 -0.853,-1.5394 -1.279,-3.3394 -1.279,-5.3999 0,-2.0605 0.414,-3.8605 1.243,-5.3999 0.853,-1.5395 2.037,-2.7237 3.553,-3.5526 1.515,-0.829 3.256,-1.2434 5.222,-1.2434 1.918,0 3.624,0.4026 5.116,1.2079 1.492,0.8052 2.652,1.9539 3.481,3.446 0.853,1.492 1.279,3.2328 1.279,5.2223 z m -6.71,-1.5987 c 0.272,0 0.497,-0.2218 0.465,-0.4924 -0.097,-0.8142 -0.443,-1.479 -1.038,-1.9944 -0.71,-0.6158 -1.598,-0.9237 -2.664,-0.9237 -1.018,0 -1.883,0.2961 -2.593,0.8882 -0.564,0.4858 -0.952,1.1391 -1.165,1.9598 -0.076,0.2924 0.158,0.5625 0.46,0.5625 z"
             fill="#162533"
             id="path6" /><path
             d="m 151.252,5.79689 c 0.273,0 0.494,0.22091 0.494,0.49342 V 31.5926 c 0,0.2725 -0.221,0.4934 -0.494,0.4934 h -5.088 c -0.272,0 -0.493,-0.2209 -0.493,-0.4934 V 6.29031 c 0,-0.27251 0.221,-0.49342 0.493,-0.49342 z"
             fill="#162533"
             id="path7" /><path
             d="m 155.418,22.1388 c 0,-2.0369 0.379,-3.825 1.137,-5.3644 0.781,-1.5395 1.835,-2.7237 3.161,-3.5526 1.327,-0.829 2.807,-1.2434 4.441,-1.2434 1.397,0 2.617,0.2842 3.659,0.8526 0.498,0.2653 0.941,0.5693 1.33,0.912 0.373,0.3288 1.122,0.0804 1.122,-0.4171 V 12.756 c 0,-0.2725 0.22,-0.4934 0.493,-0.4934 h 5.088 c 0.273,0 0.493,0.2209 0.493,0.4934 v 18.8366 c 0,0.2725 -0.22,0.4934 -0.493,0.4934 h -5.088 c -0.273,0 -0.493,-0.2209 -0.493,-0.4934 v -0.6291 c 0,-0.4928 -0.724,-0.7364 -1.092,-0.4087 -0.408,0.3635 -0.873,0.6844 -1.395,0.9628 -1.042,0.5684 -2.262,0.8526 -3.659,0.8526 -1.611,0 -3.079,-0.4145 -4.406,-1.2434 -1.326,-0.8526 -2.38,-2.0487 -3.161,-3.5881 -0.758,-1.5632 -1.137,-3.3631 -1.137,-5.3999 z m 14.85,0.0355 c 0,-1.5158 -0.427,-2.7118 -1.279,-3.5881 -0.829,-0.8763 -1.848,-1.3145 -3.056,-1.3145 -1.207,0 -2.238,0.4382 -3.09,1.3145 -0.829,0.8526 -1.244,2.0368 -1.244,3.5526 0,1.5157 0.415,2.7236 1.244,3.6236 0.852,0.8763 1.883,1.3144 3.09,1.3144 1.208,0 2.227,-0.4381 3.056,-1.3144 0.852,-0.8763 1.279,-2.0723 1.279,-3.5881 z"
             fill="#162533"
             id="path8" /><path
             d="m 68.3089,22.8848 v 8.7078 c 0,0.2725 -0.2209,0.4934 -0.4934,0.4934 h -5.0881 c -0.2725,0 -0.4934,-0.2209 -0.4934,-0.4934 V 12.756 c 0,-0.2725 0.2209,-0.4934 0.4934,-0.4934 h 5.0881 c 0.2725,0 0.4934,0.2209 0.4934,0.4934 v 2.8105 z"
             fill="#162533"
             id="path9" /><path
             d="m 72.6679,18.2683 c -1.6758,0 -3.0343,-1.3584 -3.0343,-3.0339 0,-1.6756 1.3585,-3.0339 3.0343,-3.0339 1.6757,0 3.0342,1.3583 3.0342,3.0339 0,1.6755 -1.3585,3.0339 -3.0342,3.0339 z"
             fill="#6449fa"
             id="path11" /></g></g><g
         style="fill:#ffffff"
         id="g3"
         transform="matrix(0.0189078,0,0,0.0189078,77.275133,170.43232)"><path
           d="m 192.047,45.545 h -9.889 v -2.137 c 0,-4.143 -3.358,-7.5 -7.5,-7.5 h -19.414 c -4.142,0 -7.5,3.357 -7.5,7.5 v 2.137 h -8.751 v -6.622 c 0,-12.538 -10.2,-22.738 -22.738,-22.738 H 94.687 c -12.538,0 -22.739,10.2 -22.739,22.738 v 6.622 h -8.751 v -2.137 c 0,-4.143 -3.358,-7.5 -7.5,-7.5 H 36.283 c -4.142,0 -7.5,3.357 -7.5,7.5 v 2.137 H 18.894 C 8.476,45.545 0,54.021 0,64.44 v 111.423 c 0,10.418 8.476,18.894 18.894,18.894 h 173.153 c 10.418,0 18.894,-8.476 18.894,-18.894 V 64.44 c 0,-10.419 -8.476,-18.895 -18.894,-18.895 z M 35.599,92.176 c 0,-5.743 4.672,-10.415 10.415,-10.415 5.742,0 10.414,4.672 10.414,10.415 0,5.742 -4.672,10.414 -10.414,10.414 -5.743,0 -10.415,-4.672 -10.415,-10.414 z m 57.729,-0.579 c 1.379,-3.379 3.842,-5.471 7.529,-6.396 1.566,-0.394 3.093,-0.593 4.54,-0.593 5.239,0 8.238,2.618 8.7,3.054 1.844,2.17 4.623,3.14 7.394,2.449 2.771,-0.696 4.762,-2.869 5.361,-5.658 0.31,-0.952 2.407,-6.386 10.505,-8.42 1.056,-0.266 2.083,-0.399 3.053,-0.399 6.78,0 10.971,6.888 12.134,11.519 1.038,4.134 1.105,10.005 -7.663,18.788 -5.013,5.021 -9.415,10.587 -13.083,16.545 -0.841,1.365 -2.675,1.849 -4.093,1.027 -6.05,-3.519 -12.56,-6.344 -19.348,-8.399 -11.878,-3.598 -14.593,-8.804 -15.631,-12.938 -0.886,-3.53 -0.661,-7.484 0.602,-10.579 z m 56.135,54.233 c 0,-1.832 1.491,-3.323 3.323,-3.323 h 13.072 c 1.832,0 3.322,1.491 3.322,3.323 v 13.071 c 0,1.832 -1.49,3.323 -3.322,3.323 h -13.072 c -1.832,0 -3.323,-1.491 -3.323,-3.323 z M 86.948,38.923 c 0,-4.267 3.472,-7.738 7.739,-7.738 h 21.568 c 4.267,0 7.738,3.472 7.738,7.738 v 6.622 H 86.948 Z"
           id="path1-0"
           style="fill:#ffffff" /></g></g></g></svg>
